<svg width="526" height="526" viewBox="0 0 526 526" fill="none" xmlns="http://www.w3.org/2000/svg">
<path d="M262.284 219.982C239.83 219.982 221.628 238.184 221.628 260.637C221.628 283.091 239.83 301.293 262.284 301.293C284.738 301.293 302.94 283.091 302.94 260.637C302.94 238.184 284.738 219.982 262.284 219.982ZM241.731 257.476C241.731 254.731 243.955 252.507 246.699 252.507C249.444 252.507 251.668 254.731 251.668 257.476C251.668 260.22 249.444 262.445 246.699 262.445C243.955 262.444 241.731 260.22 241.731 257.476ZM262.284 282.826C255.738 282.826 250.342 277.96 249.48 271.651H275.088C274.226 277.96 268.83 282.826 262.284 282.826ZM277.869 262.444C275.125 262.444 272.901 260.219 272.901 257.475C272.901 254.731 275.125 252.506 277.869 252.506C280.613 252.506 282.839 254.731 282.839 257.475C282.838 260.22 280.613 262.444 277.869 262.444Z" fill="#FCB738"/>
<path d="M396.098 391.38C386.646 391.38 378.983 399.043 378.983 408.494C378.983 417.946 386.646 425.609 396.098 425.609C405.55 425.609 413.212 417.946 413.212 408.494C413.212 399.043 405.55 391.38 396.098 391.38ZM387.446 407.163C387.446 406.008 388.382 405.072 389.537 405.072C390.692 405.072 391.629 406.008 391.629 407.163C391.629 408.319 390.692 409.255 389.537 409.255C388.382 409.255 387.446 408.318 387.446 407.163ZM396.098 417.835C393.342 417.835 391.071 415.786 390.708 413.131H401.488C401.124 415.786 398.853 417.835 396.098 417.835ZM402.659 409.255C401.504 409.255 400.567 408.318 400.567 407.163C400.567 406.008 401.504 405.072 402.659 405.072C403.813 405.072 404.75 406.008 404.75 407.163C404.75 408.318 403.813 409.255 402.659 409.255Z" fill="#FCB738"/>
<path d="M252.447 163.233H230.21C224.095 163.233 219.091 168.236 219.091 174.352V189.688C219.091 195.803 224.095 200.807 230.21 200.807H236.878L241.328 208.515L245.778 200.807H252.446C258.562 200.807 263.565 195.803 263.565 189.688V174.352C263.565 168.236 258.562 163.233 252.447 163.233Z" fill="#CBCAC8"/>
<path d="M232.35 182.853C232.35 184.211 231.249 185.313 229.89 185.313C228.532 185.313 227.43 184.212 227.43 182.853C227.43 181.494 228.531 180.393 229.89 180.393C231.249 180.393 232.35 181.494 232.35 182.853Z" fill="white"/>
<path d="M243.558 182.853C243.558 184.211 242.457 185.313 241.098 185.313C239.739 185.313 238.637 184.212 238.637 182.853C238.637 181.494 239.739 180.393 241.098 180.393C242.456 180.393 243.558 181.494 243.558 182.853Z" fill="white"/>
<path d="M254.766 182.853C254.766 184.211 253.664 185.313 252.305 185.313C250.947 185.313 249.845 184.212 249.845 182.853C249.845 181.494 250.946 180.393 252.305 180.393C253.664 180.393 254.766 181.494 254.766 182.853Z" fill="white"/>
<path d="M130.489 341.916L134.341 349.722C134.876 350.805 135.908 351.555 137.103 351.729L145.717 352.981C148.726 353.418 149.927 357.115 147.751 359.237L141.517 365.313C140.653 366.156 140.258 367.37 140.463 368.559L141.934 377.139C142.448 380.135 139.303 382.42 136.612 381.006L128.907 376.955C127.839 376.393 126.562 376.393 125.493 376.955L117.788 381.006C115.097 382.42 111.952 380.135 112.466 377.139L113.938 368.559C114.142 367.37 113.747 366.155 112.883 365.313L106.65 359.237C104.473 357.115 105.675 353.417 108.683 352.981L117.297 351.729C118.492 351.556 119.524 350.805 120.059 349.722L123.911 341.916C125.256 339.19 129.143 339.19 130.489 341.916Z" fill="#FCB738"/>
<path d="M412.057 149.022L414.808 154.595C415.19 155.368 415.927 155.904 416.78 156.028L422.931 156.922C425.08 157.234 425.937 159.875 424.383 161.389L419.932 165.727C419.315 166.329 419.033 167.196 419.179 168.046L420.23 174.171C420.596 176.311 418.351 177.943 416.429 176.933L410.928 174.04C410.165 173.639 409.253 173.639 408.491 174.04L402.99 176.933C401.068 177.943 398.823 176.311 399.189 174.171L400.24 168.046C400.386 167.196 400.104 166.329 399.487 165.727L395.036 161.389C393.481 159.874 394.339 157.234 396.488 156.922L402.638 156.028C403.492 155.904 404.229 155.368 404.611 154.595L407.362 149.022C408.32 147.075 411.096 147.075 412.057 149.022Z" fill="#FCB738"/>
<path d="M341.325 295.445H318.086C311.696 295.445 306.467 300.674 306.467 307.064V323.091C306.467 329.481 311.696 334.71 318.086 334.71H325.054L329.705 342.765L334.356 334.71H341.325C347.715 334.71 352.944 329.481 352.944 323.091V307.064C352.944 300.674 347.715 295.445 341.325 295.445ZM337.112 318.617L332.43 321.32L327.748 324.023C325.739 325.183 323.227 323.733 323.227 321.412V316.006V310.6C323.227 308.28 325.739 306.83 327.748 307.99L332.43 310.693L337.112 313.396C339.122 314.557 339.122 317.457 337.112 318.617Z" fill="#FCB738"/>
<path d="M168.778 238.053H92.8995C80.9458 238.053 71.1648 247.834 71.1648 259.788V289.766C71.1648 301.721 80.9458 311.501 92.8995 311.501H123.3L132 326.569L140.7 311.501H168.778C180.731 311.501 190.512 301.721 190.512 289.766V259.788C190.512 247.833 180.732 238.053 168.778 238.053Z" fill="#CBCAC8"/>
<path d="M143.661 260.548V284.541H140.756V263.594H140.615L134.757 267.484V264.532L140.756 260.548H143.661ZM158.387 284.869C156.622 284.869 155.119 284.389 153.877 283.428C152.635 282.46 151.686 281.058 151.03 279.223C150.374 277.379 150.046 275.153 150.046 272.545C150.046 269.952 150.374 267.738 151.03 265.902C151.694 264.059 152.647 262.653 153.889 261.685C155.138 260.708 156.638 260.22 158.387 260.22C160.137 260.22 161.632 260.708 162.874 261.685C164.124 262.653 165.077 264.059 165.733 265.902C166.397 267.738 166.729 269.952 166.729 272.545C166.729 275.153 166.4 277.379 165.744 279.223C165.088 281.058 164.139 282.46 162.898 283.428C161.656 284.389 160.152 284.869 158.387 284.869ZM158.387 282.292C160.137 282.292 161.496 281.448 162.464 279.761C163.433 278.074 163.917 275.669 163.917 272.545C163.917 270.467 163.694 268.698 163.249 267.238C162.812 265.777 162.179 264.664 161.351 263.899C160.531 263.134 159.543 262.751 158.387 262.751C156.653 262.751 155.298 263.606 154.322 265.316C153.346 267.019 152.858 269.429 152.858 272.545C152.858 274.622 153.076 276.387 153.514 277.84C153.951 279.293 154.58 280.398 155.4 281.156C156.228 281.913 157.223 282.292 158.387 282.292Z" fill="white"/>
<path d="M110.418 275.738C117.044 275.738 122.415 270.367 122.415 263.741C122.415 257.115 117.044 251.744 110.418 251.744C103.792 251.744 98.4207 257.115 98.4207 263.741C98.4207 270.367 103.792 275.738 110.418 275.738Z" fill="white"/>
<path d="M110.418 280.153C102.172 280.153 95.1223 283.435 92.2718 288.071C91.0409 290.072 92.5019 292.651 94.8517 292.651H125.985C128.334 292.651 129.795 290.072 128.564 288.071C125.713 283.435 118.663 280.153 110.418 280.153Z" fill="white"/>
<path d="M227.766 108.77H185.769C179.152 108.77 173.739 114.183 173.739 120.8V137.392C173.739 144.009 179.152 149.422 185.769 149.422H202.594L207.41 157.762L212.225 149.422H227.766C234.382 149.422 239.796 144.009 239.796 137.392V120.8C239.796 114.183 234.382 108.77 227.766 108.77Z" fill="#CBCAC8"/>
<path d="M214.756 136.38C213.995 136.38 213.31 136.229 212.7 135.926C212.091 135.624 211.602 135.209 211.235 134.681C210.868 134.154 210.667 133.553 210.632 132.879H212.188C212.249 133.48 212.521 133.977 213.005 134.37C213.494 134.759 214.077 134.954 214.756 134.954C215.301 134.954 215.785 134.826 216.208 134.571C216.636 134.316 216.971 133.966 217.213 133.521C217.46 133.071 217.583 132.563 217.583 131.997C217.583 131.418 217.456 130.901 217.2 130.447C216.95 129.989 216.604 129.628 216.163 129.364C215.722 129.101 215.218 128.967 214.652 128.962C214.246 128.958 213.829 129.021 213.401 129.15C212.973 129.276 212.621 129.438 212.344 129.637L210.84 129.455L211.644 122.919H218.543V124.346H212.992L212.525 128.262H212.603C212.876 128.046 213.217 127.867 213.628 127.724C214.038 127.581 214.466 127.51 214.912 127.51C215.724 127.51 216.448 127.704 217.084 128.094C217.724 128.478 218.225 129.006 218.588 129.676C218.956 130.346 219.139 131.111 219.139 131.971C219.139 132.818 218.949 133.575 218.569 134.241C218.193 134.902 217.674 135.425 217.012 135.81C216.351 136.19 215.599 136.38 214.756 136.38ZM226.047 136.38C225.07 136.38 224.237 136.114 223.55 135.583C222.863 135.047 222.338 134.271 221.974 133.255C221.611 132.235 221.43 131.003 221.43 129.559C221.43 128.124 221.611 126.898 221.974 125.882C222.342 124.862 222.869 124.084 223.557 123.548C224.248 123.008 225.078 122.738 226.047 122.738C227.015 122.738 227.843 123.008 228.53 123.548C229.222 124.084 229.749 124.862 230.112 125.882C230.48 126.898 230.663 128.124 230.663 129.559C230.663 131.003 230.482 132.235 230.119 133.255C229.755 134.271 229.23 135.047 228.543 135.583C227.856 136.114 227.023 136.38 226.047 136.38ZM226.047 134.954C227.015 134.954 227.767 134.487 228.303 133.553C228.839 132.619 229.107 131.288 229.107 129.559C229.107 128.409 228.984 127.43 228.737 126.622C228.495 125.813 228.145 125.197 227.687 124.774C227.233 124.35 226.686 124.138 226.047 124.138C225.087 124.138 224.337 124.612 223.797 125.558C223.256 126.501 222.986 127.834 222.986 129.559C222.986 130.709 223.107 131.686 223.349 132.49C223.591 133.294 223.939 133.905 224.393 134.325C224.851 134.744 225.402 134.954 226.047 134.954Z" fill="white"/>
<path d="M200.158 127.684C202.751 125.091 202.751 120.887 200.158 118.294C197.565 115.701 193.361 115.701 190.768 118.294C188.175 120.887 188.175 125.091 190.768 127.684C193.361 130.277 197.565 130.277 200.158 127.684Z" fill="white"/>
<path d="M195.465 132.072C190.901 132.072 187 133.888 185.421 136.454C184.741 137.562 185.548 138.989 186.849 138.989H204.081C205.381 138.989 206.189 137.562 205.508 136.454C203.931 133.888 200.029 132.072 195.465 132.072Z" fill="white"/>
<path d="M160.506 423.351C168.095 423.351 174.247 417.199 174.247 409.61C174.247 402.021 168.095 395.868 160.506 395.868C152.917 395.868 146.764 402.021 146.764 409.61C146.764 417.199 152.917 423.351 160.506 423.351Z" fill="#CBCAC8"/>
<path d="M160.506 428.408C151.062 428.408 142.987 432.167 139.722 437.477C138.312 439.77 139.985 442.723 142.676 442.723H178.335C181.027 442.723 182.699 439.77 181.29 437.477C178.026 432.167 169.95 428.408 160.506 428.408Z" fill="#CBCAC8"/>
<path d="M204.565 429.43C209.806 429.43 214.054 425.182 214.054 419.941C214.054 414.7 209.806 410.451 204.565 410.451C199.324 410.451 195.075 414.7 195.075 419.941C195.075 425.182 199.324 429.43 204.565 429.43Z" fill="#CBCAC8"/>
<path d="M204.564 432.922C198.043 432.922 192.466 435.517 190.212 439.184C189.238 440.768 190.393 442.807 192.252 442.807H216.877C218.735 442.807 219.89 440.768 218.917 439.184C216.663 435.517 211.086 432.922 204.564 432.922Z" fill="#CBCAC8"/>
<path d="M356.563 201.815C364.152 201.815 370.304 195.663 370.304 188.074C370.304 180.484 364.152 174.332 356.563 174.332C348.974 174.332 342.822 180.484 342.822 188.074C342.822 195.663 348.974 201.815 356.563 201.815Z" fill="#CBCAC8"/>
<path d="M356.563 206.872C347.119 206.872 339.044 210.631 335.779 215.942C334.37 218.235 336.042 221.188 338.733 221.188H374.393C377.084 221.188 378.756 218.235 377.347 215.942C374.083 210.631 366.008 206.872 356.563 206.872Z" fill="#CBCAC8"/>
<path d="M172.896 212.607C172.896 215.817 175.498 218.42 178.708 218.42C181.918 218.42 184.52 215.818 184.52 212.607C184.52 192.097 167.833 175.411 147.323 175.411C144.113 175.411 141.511 178.012 141.511 181.222C141.511 184.432 144.113 187.035 147.323 187.035C161.424 187.035 172.896 198.507 172.896 212.607Z" fill="#CBCAC8"/>
<path d="M201.993 218.419C205.203 218.419 207.805 215.817 207.805 212.606C207.805 179.257 180.673 152.124 147.323 152.124C144.113 152.124 141.511 154.726 141.511 157.936C141.511 161.146 144.113 163.748 147.323 163.748C174.264 163.748 196.181 185.666 196.181 212.606C196.181 215.817 198.783 218.419 201.993 218.419Z" fill="#CBCAC8"/>
<path d="M140.008 208.861C140.008 215.184 145.152 220.328 151.475 220.328C157.798 220.328 162.942 215.184 162.942 208.861C162.942 202.538 157.798 197.394 151.475 197.394C145.152 197.394 140.008 202.538 140.008 208.861Z" fill="#CBCAC8"/>
<path d="M432.308 237.76H403.63C399.202 237.76 395.613 234.171 395.613 229.744V198.581C395.613 194.153 399.202 190.564 403.63 190.564H432.308C436.736 190.564 440.325 194.153 440.325 198.581V229.744C440.325 234.172 436.735 237.76 432.308 237.76Z" fill="#CBCAC8"/>
<path d="M431.849 227.475L426.693 221.129C428.859 218.83 430.197 215.743 430.197 212.342C430.197 205.265 424.439 199.507 417.362 199.507C410.285 199.507 404.527 205.265 404.527 212.342C404.527 219.419 410.285 225.177 417.362 225.177C419.247 225.177 421.032 224.758 422.646 224.026L427.993 230.608L431.849 227.475ZM409.496 212.343C409.496 208.005 413.025 204.476 417.362 204.476C421.7 204.476 425.229 208.005 425.229 212.343C425.229 216.68 421.7 220.209 417.362 220.209C413.025 220.209 409.496 216.68 409.496 212.343Z" fill="white"/>
<path d="M354.409 359.533H321.292C316.02 359.533 311.706 363.847 311.706 369.119V397.007C311.706 402.28 316.02 406.593 321.292 406.593H354.409C359.682 406.593 363.995 402.28 363.995 397.007V369.119C363.995 363.847 359.682 359.533 354.409 359.533ZM345.791 372.145C345.138 371.945 344.335 371.794 343.33 371.794C340.82 371.794 339.765 373.752 339.765 376.162V377.417H344.686V383.041H339.815V401.971H332.133V383.041H328.92V377.417H332.133V376.464C332.133 373.501 333.037 370.237 335.246 368.229C337.154 366.421 339.815 365.769 342.025 365.769C343.732 365.769 345.038 365.969 346.092 366.271L345.791 372.145Z" fill="#CBCAC8"/>
<path d="M295.967 99.7527H265.028C256.52 99.7527 249.558 106.714 249.558 115.222V136.559C249.558 145.067 256.52 152.029 265.028 152.029H274.305L280.497 162.754L286.689 152.029H295.967C304.475 152.029 311.436 145.067 311.436 136.559V115.222C311.436 106.714 304.475 99.7527 295.967 99.7527ZM282.424 135.079L276.808 127.007L261.366 130.867L279.264 118.935L284.177 126.656L299.269 121.743L282.424 135.079Z" fill="#CBCAC8"/>
<path d="M87.3893 205.855L87.5183 205.956L102.273 217.498L116.976 205.889L117.104 205.788C121.033 202.686 121.708 196.933 118.606 193.004C115.504 189.075 109.752 188.399 105.823 191.502L102.22 194.346L98.604 191.518C94.6612 188.434 88.9123 189.137 85.828 193.079C82.7444 197.021 83.4472 202.77 87.3893 205.855Z" fill="#FCB738"/>
<path d="M312.901 434.67L313.03 434.771L327.785 446.313L342.487 434.704L342.615 434.603C346.544 431.501 347.22 425.748 344.118 421.819C341.016 417.89 335.264 417.214 331.335 420.317L327.732 423.161L324.116 420.333C320.173 417.249 314.424 417.952 311.34 421.894C308.256 425.836 308.959 431.586 312.901 434.67Z" fill="#FCB738"/>
<path d="M286.357 192.893L286.521 193.021L305.251 207.673L323.915 192.936L324.078 192.808C329.065 188.87 329.924 181.568 325.986 176.58C322.048 171.593 314.745 170.735 309.758 174.672L305.185 178.284L300.595 174.694C295.59 170.778 288.291 171.67 284.376 176.675C280.46 181.679 281.352 188.978 286.357 192.893Z" fill="#FCB738"/>
<path d="M372.437 254.532L361.738 246.184L352.731 239.157C350.894 237.724 348.212 239.033 348.212 241.364V248.228C348.158 248.232 348.106 248.23 348.052 248.238C342.151 249.154 322.167 253.891 313.73 276.574C313.02 278.481 315.416 280.019 316.872 278.597C322.839 272.765 333.512 265.026 348.213 264.746V272.111C348.213 274.442 350.895 275.752 352.732 274.318L361.739 267.291L372.437 258.943C373.872 257.824 373.872 255.652 372.437 254.532Z" fill="#CBCAC8"/>
<path d="M295.517 417.957L284.819 409.61L275.812 402.583C273.975 401.149 271.292 402.458 271.292 404.789V411.653C271.238 411.657 271.186 411.655 271.132 411.663C265.231 412.58 245.247 417.316 236.81 439.999C236.101 441.906 238.496 443.444 239.952 442.022C245.919 436.191 256.593 428.451 271.293 428.172V435.536C271.293 437.867 273.975 439.177 275.813 437.743L284.82 430.716L295.518 422.369C296.954 421.249 296.954 419.077 295.517 417.957Z" fill="#CBCAC8"/>
<path d="M424.124 340.707H421.608L417.997 335.618C417.711 335.216 417.249 334.977 416.756 334.977H402.338C401.846 334.977 401.383 335.216 401.098 335.618L397.486 340.707H394.971C391.059 340.707 387.859 343.907 387.859 347.818V368.505C387.859 372.416 391.059 375.616 394.971 375.616H424.123C428.034 375.616 431.234 372.416 431.234 368.505V347.818C431.234 343.907 428.035 340.707 424.124 340.707ZM409.548 368.465C403.759 368.465 399.066 363.772 399.066 357.983C399.066 352.195 403.759 347.502 409.548 347.502C415.336 347.502 420.029 352.195 420.029 357.983C420.029 363.772 415.336 368.465 409.548 368.465Z" fill="#CBCAC8"/>
<path d="M414.824 357.983C414.824 360.897 412.462 363.26 409.548 363.26C406.634 363.26 404.271 360.897 404.271 357.983C404.271 355.069 406.634 352.707 409.548 352.707C412.462 352.707 414.824 355.069 414.824 357.983Z" fill="#CBCAC8"/>
<path d="M261.243 385.295H284.482C287.545 385.295 290.05 382.789 290.05 379.727V332.83C290.05 329.767 287.544 327.262 284.482 327.262H261.243C258.18 327.262 255.674 329.768 255.674 332.83V379.727C255.674 382.79 258.181 385.295 261.243 385.295Z" fill="#CBCAC8"/>
<path d="M244.715 379.319C247.292 378.095 247.81 375.891 247.896 374.72L247.896 373.938L247.939 335.025C247.91 332.124 246.446 331.467 245.52 331.345H241.314C240.484 331.345 239.666 331.092 238.979 330.625C220.338 317.945 219.635 315.84 219.215 314.581C215.654 303.892 213.53 296.123 212.866 291.372C212.783 291.3 212.731 291.254 212.649 291.182C209.638 291.083 207.042 292.46 204.935 295.268C200.332 301.408 206.408 322.834 208.783 327.699C209.193 328.538 209.361 329.498 209.147 330.407C208.713 332.254 207.101 333.458 205.323 333.458H166.588C166.403 333.458 166.218 333.445 166.034 333.419H166.035C166.032 333.419 165.633 333.37 165.046 333.37C160.644 333.37 160.644 335.382 160.644 336.584C160.644 341.987 162.652 345.344 165.883 345.344C166.987 345.344 168.038 345.809 168.781 346.626C169.523 347.442 169.887 348.534 169.782 349.633C169.627 351.353 169.657 356.815 171.771 359.127C172.2 359.596 172.88 360.135 174.334 360.135C175.448 360.135 176.51 360.609 177.253 361.44C177.995 362.269 178.351 363.378 178.227 364.485C178.097 365.747 178.107 369.824 179.82 371.721C180.242 372.189 181.009 372.812 182.786 372.812C183.867 372.812 184.9 373.259 185.641 374.047C186.382 374.835 186.763 375.895 186.696 376.975C186.584 378.942 186.972 382.456 188.16 383.713C188.381 383.946 188.609 384.081 189.124 384.081C189.364 384.081 189.602 384.103 189.837 384.146C189.916 384.16 198.164 385.646 211.348 385.646H211.351C218.964 385.646 226.732 385.158 234.453 384.195L244.715 379.319Z" fill="#CBCAC8"/>
<path d="M395.757 317.903H379.562C377.428 317.903 375.682 316.156 375.682 314.023V281.343C375.682 279.209 377.429 277.462 379.562 277.462H395.757C397.891 277.462 399.637 279.209 399.637 281.343V314.023C399.637 316.156 397.891 317.903 395.757 317.903Z" fill="#CBCAC8"/>
<path d="M420.925 320.352C416.185 320.352 411.347 320.04 406.547 319.424C406.307 319.394 406.074 319.323 405.859 319.215L396.03 314.301C395.293 313.932 394.831 313.173 394.842 312.349L395.252 282.045C395.268 280.868 396.225 279.924 397.401 279.924H402.88C406.848 277.206 411.287 273.95 412.244 272.927C414.715 265.478 415.881 260.535 415.755 259.483C415.592 258.498 416.129 257.541 417.051 257.156C417.196 257.096 418.517 256.568 420.346 256.568C422.508 256.568 425.625 257.288 428.197 260.718C431.826 265.556 429.304 275.857 427.539 281.152H446.826C447.032 281.13 447.393 281.101 447.849 281.101C452.159 281.101 454.836 283.514 454.836 287.397C454.836 292.673 452.42 295.611 449.544 296.567C449.469 298.536 449.024 301.492 447.217 303.478C446.493 304.275 445.612 304.847 444.614 305.18C444.511 306.817 444.068 309.091 442.562 310.774C441.773 311.656 440.78 312.273 439.633 312.604C439.485 314.191 439.017 316.361 437.638 317.829C436.693 318.834 435.458 319.388 434.056 319.438C433.068 319.606 428.278 320.352 420.925 320.352ZM407.453 315.205C411.954 315.767 416.485 316.052 420.925 316.052C428.646 316.052 433.409 315.186 433.457 315.178C433.586 315.153 433.717 315.142 433.848 315.142C434.193 315.142 434.355 315.043 434.505 314.885C435.256 314.085 435.451 311.877 435.388 310.874C435.351 310.281 435.561 309.699 435.967 309.267C436.373 308.834 436.941 308.589 437.534 308.589C438.618 308.589 439.091 308.203 439.354 307.912C440.381 306.773 440.389 304.355 440.311 303.597C440.248 302.992 440.445 302.384 440.852 301.932C441.26 301.48 441.84 301.218 442.448 301.218C443.347 301.218 443.769 300.88 444.037 300.586C445.213 299.292 445.343 296.245 445.222 294.972C445.165 294.369 445.365 293.77 445.772 293.322C446.18 292.874 446.757 292.618 447.363 292.618C449.321 292.618 450.537 290.618 450.537 287.398C450.537 286.7 450.537 285.402 447.85 285.402C447.49 285.402 447.247 285.433 447.245 285.433C447.153 285.445 447.047 285.453 446.954 285.453H424.431C423.686 285.453 422.994 285.067 422.602 284.433C422.211 283.799 422.175 283.008 422.508 282.341C423.877 279.603 427.483 266.93 424.759 263.298C423.549 261.686 422.066 260.868 420.348 260.868C420.209 260.868 420.076 260.873 419.95 260.883C419.602 263.607 418.358 268.187 416.234 274.561C416.01 275.234 415.594 276.482 404.755 283.852C404.399 284.095 403.977 284.224 403.546 284.224H399.525L399.162 311.058L407.453 315.205Z" fill="#CBCAC8"/>
<path d="M375.444 105.75C375.444 91.3556 363.775 79.6865 349.381 79.6865C334.986 79.6865 323.317 91.3556 323.317 105.75C323.317 105.75 319.645 133.356 349.381 155.306C379.115 133.356 375.444 105.75 375.444 105.75ZM350.381 118.043C342.783 118.642 336.489 112.348 337.088 104.749C337.559 98.7713 342.402 93.928 348.38 93.4568C355.978 92.8579 362.272 99.1511 361.674 106.751C361.202 112.729 356.359 117.571 350.381 118.043Z" fill="#CBCAC8"/>
<path d="M146.697 127.365L147.735 123.51C148.033 122.402 149.605 122.402 149.903 123.51L150.941 127.365C151.045 127.752 151.347 128.053 151.733 128.157L155.588 129.195C156.696 129.493 156.696 131.065 155.588 131.363L151.733 132.401C151.347 132.505 151.045 132.807 150.941 133.193L149.903 137.048C149.605 138.156 148.034 138.156 147.735 137.048L146.697 133.193C146.593 132.807 146.292 132.505 145.905 132.401L142.05 131.363C140.942 131.065 140.942 129.494 142.05 129.195L145.905 128.157C146.292 128.053 146.593 127.752 146.697 127.365Z" fill="#CBCAC8"/>
<path d="M199.564 233.213L200.602 229.358C200.9 228.251 202.471 228.251 202.77 229.358L203.808 233.213C203.912 233.6 204.213 233.902 204.6 234.006L208.455 235.043C209.563 235.341 209.563 236.913 208.455 237.212L204.6 238.249C204.213 238.353 203.912 238.655 203.808 239.041L202.77 242.896C202.472 244.004 200.9 244.004 200.602 242.896L199.564 239.041C199.46 238.655 199.158 238.353 198.772 238.249L194.917 237.212C193.809 236.914 193.809 235.342 194.917 235.043L198.772 234.006C199.158 233.902 199.46 233.599 199.564 233.213Z" fill="#CBCAC8"/>
<path d="M96.2742 325.697L97.3119 321.842C97.6098 320.734 99.1815 320.734 99.4802 321.842L100.518 325.697C100.622 326.083 100.924 326.385 101.31 326.489L105.165 327.527C106.273 327.825 106.273 329.396 105.165 329.695L101.31 330.733C100.924 330.837 100.622 331.138 100.518 331.525L99.4802 335.38C99.1822 336.488 97.6106 336.488 97.3119 335.38L96.2742 331.525C96.1702 331.138 95.8686 330.837 95.4821 330.733L91.6271 329.695C90.5193 329.397 90.5193 327.825 91.6271 327.527L95.4821 326.489C95.8686 326.385 96.1702 326.083 96.2742 325.697Z" fill="#CBCAC8"/>
<path d="M230.208 399.996L231.245 396.141C231.543 395.033 233.115 395.033 233.414 396.141L234.451 399.996C234.555 400.382 234.857 400.684 235.244 400.788L239.099 401.825C240.206 402.123 240.206 403.695 239.099 403.994L235.244 405.031C234.857 405.135 234.555 405.437 234.451 405.823L233.414 409.678C233.116 410.786 231.544 410.786 231.245 409.678L230.208 405.823C230.104 405.437 229.802 405.135 229.416 405.031L225.561 403.994C224.453 403.696 224.453 402.124 225.561 401.825L229.416 400.788C229.801 400.684 230.104 400.382 230.208 399.996Z" fill="#CBCAC8"/>
<path d="M359.817 340.599L360.855 336.744C361.153 335.637 362.724 335.637 363.023 336.744L364.061 340.599C364.165 340.986 364.466 341.288 364.853 341.391L368.708 342.429C369.816 342.727 369.816 344.299 368.708 344.598L364.853 345.635C364.466 345.739 364.165 346.041 364.061 346.427L363.023 350.282C362.725 351.39 361.153 351.39 360.855 350.282L359.817 346.427C359.713 346.041 359.411 345.739 359.025 345.635L355.17 344.598C354.062 344.3 354.062 342.728 355.17 342.429L359.025 341.391C359.411 341.288 359.713 340.986 359.817 340.599Z" fill="#CBCAC8"/>
<path d="M374.653 152.226L375.69 148.371C375.988 147.264 377.56 147.264 377.859 148.371L378.896 152.226C379 152.613 379.302 152.914 379.688 153.018L383.543 154.056C384.651 154.354 384.651 155.926 383.543 156.224L379.688 157.262C379.302 157.366 379 157.668 378.896 158.054L377.859 161.909C377.561 163.017 375.989 163.017 375.69 161.909L374.653 158.054C374.549 157.668 374.247 157.366 373.861 157.262L370.006 156.224C368.898 155.926 368.898 154.355 370.006 154.056L373.861 153.018C374.247 152.914 374.549 152.613 374.653 152.226Z" fill="#CBCAC8"/>
<path d="M445.042 250.581L446.08 246.726C446.378 245.618 447.949 245.618 448.248 246.726L449.286 250.581C449.39 250.967 449.691 251.269 450.078 251.373L453.933 252.41C455.041 252.708 455.041 254.28 453.933 254.578L450.078 255.616C449.691 255.72 449.39 256.021 449.286 256.408L448.248 260.263C447.95 261.371 446.379 261.371 446.08 260.263L445.042 256.408C444.938 256.021 444.636 255.72 444.25 255.616L440.395 254.578C439.287 254.28 439.287 252.708 440.395 252.41L444.25 251.373C444.636 251.269 444.938 250.966 445.042 250.581Z" fill="#CBCAC8"/>
<path d="M237.245 91.1039L238.282 87.2489C238.58 86.1412 240.152 86.1412 240.451 87.2489L241.488 91.1039C241.592 91.4904 241.894 91.792 242.28 91.896L246.135 92.9337C247.243 93.2317 247.243 94.8033 246.135 95.102L242.28 96.1397C241.894 96.2437 241.592 96.5453 241.488 96.9318L240.451 100.787C240.153 101.895 238.581 101.895 238.282 100.787L237.245 96.9318C237.141 96.5453 236.839 96.2437 236.452 96.1397L232.597 95.102C231.49 94.8041 231.49 93.2324 232.597 92.9337L236.452 91.896C236.839 91.792 237.141 91.4904 237.245 91.1039Z" fill="#CBCAC8"/>
<path d="M124.048 399.697L125.086 395.842C125.384 394.735 126.955 394.735 127.254 395.842L128.292 399.697C128.396 400.084 128.697 400.386 129.084 400.489L132.939 401.527C134.046 401.825 134.046 403.397 132.939 403.696L129.084 404.733C128.697 404.837 128.396 405.139 128.292 405.525L127.254 409.38C126.956 410.488 125.384 410.488 125.086 409.38L124.048 405.525C123.944 405.139 123.642 404.837 123.256 404.733L119.401 403.696C118.293 403.398 118.293 401.826 119.401 401.527L123.256 400.489C123.642 400.386 123.944 400.084 124.048 399.697Z" fill="#CBCAC8"/>
<path d="M311.873 227.397L312.91 223.542C313.208 222.434 314.78 222.434 315.079 223.542L316.116 227.397C316.22 227.783 316.522 228.085 316.908 228.189L320.763 229.226C321.871 229.524 321.871 231.096 320.763 231.395L316.908 232.432C316.522 232.536 316.22 232.838 316.116 233.225L315.079 237.08C314.781 238.187 313.209 238.187 312.91 237.08L311.873 233.225C311.769 232.838 311.467 232.536 311.081 232.432L307.226 231.395C306.118 231.097 306.118 229.525 307.226 229.226L311.081 228.189C311.467 228.085 311.769 227.783 311.873 227.397Z" fill="#CBCAC8"/>
</svg>
