<svg width="619" height="366" viewBox="0 0 619 366" fill="none" xmlns="http://www.w3.org/2000/svg">
<path d="M237.667 237.833C251.223 237.833 262.085 226.89 262.085 213.333C262.085 199.776 251.223 188.833 237.667 188.833C224.11 188.833 213.167 199.776 213.167 213.333C213.167 226.89 224.11 237.833 237.667 237.833ZM172.333 237.833C185.89 237.833 196.752 226.89 196.752 213.333C196.752 199.776 185.89 188.833 172.333 188.833C158.777 188.833 147.833 199.776 147.833 213.333C147.833 226.89 158.777 237.833 172.333 237.833ZM172.333 254.166C153.305 254.166 115.167 263.721 115.167 282.75V303.166H229.5V282.75C229.5 263.721 191.362 254.166 172.333 254.166ZM237.667 254.166C235.298 254.166 232.603 254.33 229.745 254.575C239.218 261.435 245.833 270.663 245.833 282.75V303.166H294.833V282.75C294.833 263.721 256.695 254.166 237.667 254.166Z" fill="#CBCAC8"/>
<path d="M436.333 242.167C449.337 242.167 459.755 231.67 459.755 218.667C459.755 205.664 449.337 195.167 436.333 195.167C423.33 195.167 412.833 205.664 412.833 218.667C412.833 231.67 423.33 242.167 436.333 242.167ZM373.667 242.167C386.67 242.167 397.088 231.67 397.088 218.667C397.088 205.664 386.67 195.167 373.667 195.167C360.663 195.167 350.167 205.664 350.167 218.667C350.167 231.67 360.663 242.167 373.667 242.167ZM373.667 257.834C355.415 257.834 318.833 266.999 318.833 285.25V304.834H428.5V285.25C428.5 266.999 391.918 257.834 373.667 257.834ZM436.333 257.834C434.062 257.834 431.477 257.99 428.735 258.225C437.822 264.805 444.167 273.657 444.167 285.25V304.834H491.167V285.25C491.167 266.999 454.585 257.834 436.333 257.834Z" fill="#CBCAC8"/>
<path d="M297.07 80.4404C296.417 81.0065 295.894 81.7071 295.537 82.4941C295.179 83.2811 294.996 84.1361 295 85.0004V169C295 170.592 295.632 172.118 296.757 173.243C297.883 174.368 299.409 175 301 175C302.591 175 304.117 174.368 305.243 173.243C306.368 172.118 307 170.592 307 169V147.86C318.42 139.3 328.05 143.3 342.34 150.36C350.455 154.36 359.71 158.96 369.74 158.96C377.1 158.96 384.88 156.49 392.93 149.52C393.578 148.959 394.098 148.265 394.455 147.485C394.812 146.705 394.998 145.858 395 145V85.0004C395 83.85 394.67 82.7237 394.048 81.7559C393.426 80.788 392.539 80.0193 391.493 79.5414C390.446 79.0635 389.284 78.8965 388.146 79.0603C387.007 79.2241 385.939 79.7119 385.07 80.4654C372.715 91.1704 362.805 87.1204 347.66 79.6254C333.595 72.6354 316.085 63.9704 297.07 80.4404ZM383 142.13C371.58 150.695 361.95 146.685 347.66 139.63C336.08 133.88 322.165 127 307 133.935V87.8454C318.42 79.2854 328.05 83.2854 342.34 90.3454C350.455 94.3454 359.71 98.9454 369.74 98.9454C374.319 98.9522 378.844 97.9609 383 96.0404V142.13Z" fill="#F49E00"/>
</svg>
