<svg width="619" height="366" viewBox="0 0 619 366" fill="none" xmlns="http://www.w3.org/2000/svg">
<path d="M395.814 138.147L368.156 162.286L376.441 198.224C376.879 200.103 376.754 202.069 376.081 203.877C375.408 205.685 374.217 207.255 372.657 208.389C371.097 209.524 369.237 210.174 367.309 210.257C365.382 210.341 363.473 209.854 361.82 208.858L330.476 189.846L299.198 208.858C297.546 209.854 295.637 210.341 293.709 210.257C291.782 210.174 289.922 209.524 288.361 208.389C286.801 207.255 285.61 205.685 284.937 203.877C284.264 202.069 284.139 200.103 284.578 198.224L292.851 162.322L265.186 138.147C263.722 136.885 262.664 135.219 262.144 133.358C261.624 131.497 261.665 129.524 262.261 127.686C262.858 125.848 263.984 124.228 265.498 123.027C267.012 121.827 268.847 121.1 270.773 120.938L307.238 117.78L321.473 83.8285C322.216 82.0471 323.47 80.5253 325.076 79.455C326.683 78.3846 328.57 77.8135 330.5 77.8135C332.43 77.8135 334.318 78.3846 335.924 79.455C337.53 80.5253 338.784 82.0471 339.528 83.8285L353.805 117.78L390.258 120.938C392.184 121.1 394.019 121.827 395.533 123.027C397.047 124.228 398.173 125.848 398.769 127.686C399.366 129.524 399.407 131.497 398.887 133.358C398.366 135.219 397.308 136.885 395.845 138.147H395.814Z" fill="#F49E00"/>
<g clip-path="url(#clip0_1395_10658)">
<path d="M224.163 189.925L214.151 210.144L227.322 228.592C228.014 229.555 228.406 230.7 228.45 231.885C228.494 233.07 228.188 234.242 227.569 235.253C226.951 236.265 226.048 237.072 224.974 237.574C223.9 238.075 222.701 238.249 221.529 238.073L199.256 234.667L185.982 252.829C185.278 253.783 184.309 254.509 183.196 254.916C182.082 255.323 180.873 255.392 179.72 255.116C178.567 254.839 177.521 254.229 176.713 253.361C175.905 252.494 175.371 251.407 175.177 250.237L171.414 227.909L150.013 220.704C148.885 220.333 147.892 219.636 147.158 218.703C146.425 217.769 145.983 216.639 145.888 215.456C145.794 214.272 146.051 213.086 146.628 212.048C147.205 211.01 148.075 210.165 149.13 209.62L169.085 199.234L169.165 176.608C169.167 175.422 169.52 174.263 170.18 173.277C170.84 172.291 171.776 171.522 172.872 171.067C173.968 170.612 175.174 170.492 176.338 170.721C177.502 170.95 178.572 171.518 179.414 172.354L195.518 188.262L216.955 181.465C218.086 181.104 219.298 181.084 220.441 181.408C221.583 181.733 222.604 182.388 223.376 183.29C224.148 184.193 224.636 185.303 224.779 186.482C224.922 187.661 224.714 188.856 224.181 189.917L224.163 189.925Z" fill="#CBCAC8"/>
</g>
<g clip-path="url(#clip1_1395_10658)">
<path d="M496.095 181.689L481.889 184.269L477.446 198.077C477.216 198.8 476.777 199.439 476.186 199.914C475.594 200.389 474.876 200.68 474.12 200.749C473.364 200.817 472.605 200.662 471.937 200.302C471.27 199.942 470.723 199.393 470.365 198.723L463.609 185.986L449.214 186.106C448.455 186.109 447.712 185.889 447.078 185.472C446.444 185.056 445.947 184.461 445.648 183.764C445.35 183.066 445.264 182.296 445.401 181.55C445.538 180.803 445.892 180.114 446.418 179.568L456.446 169.109L451.973 155.369C451.733 154.648 451.712 153.872 451.911 153.139C452.11 152.405 452.522 151.747 453.093 151.246C453.665 150.746 454.372 150.425 455.125 150.325C455.879 150.225 456.645 150.349 457.328 150.682L470.281 156.963L481.93 148.363C482.54 147.911 483.27 147.65 484.028 147.612C484.786 147.574 485.539 147.762 486.191 148.151C486.843 148.54 487.365 149.113 487.692 149.798C488.019 150.483 488.136 151.25 488.028 152.001L486.009 166.345L497.686 174.757C498.303 175.2 498.777 175.815 499.046 176.526C499.316 177.236 499.369 178.01 499.201 178.751C499.032 179.492 498.648 180.167 498.097 180.691C497.547 181.214 496.854 181.564 496.105 181.695L496.095 181.689Z" fill="#CBCAC8"/>
</g>
<g clip-path="url(#clip2_1395_10658)">
<path d="M261.385 270.952C270.158 276.017 281.376 273.011 286.441 264.238C291.506 255.465 288.501 244.247 279.728 239.182C270.955 234.117 259.737 237.123 254.672 245.896C249.607 254.669 252.612 265.887 261.385 270.952Z" stroke="#F49E00" stroke-width="4" stroke-linecap="round" stroke-linejoin="round"/>
<path d="M262.368 254.575C262.368 254.575 262.917 259.128 266.888 261.421C270.859 263.713 275.076 261.912 275.076 261.912M268.542 247.55L268.558 247.559M278.073 253.053L278.089 253.062" stroke="#F49E00" stroke-width="4" stroke-linecap="round" stroke-linejoin="round"/>
</g>
<path d="M414.417 272.833C414.417 271.463 413.872 270.149 412.903 269.18C411.934 268.211 410.62 267.666 409.25 267.666H392.923L395.403 255.861C395.455 255.602 395.481 255.318 395.481 255.034C395.481 253.975 395.042 252.993 394.344 252.296L391.606 249.583L374.608 266.581C373.652 267.537 373.083 268.829 373.083 270.25V296.083C373.083 297.453 373.628 298.767 374.597 299.736C375.566 300.705 376.88 301.25 378.25 301.25H401.5C403.644 301.25 405.478 299.958 406.253 298.098L414.055 279.886C414.288 279.291 414.417 278.671 414.417 278V272.833ZM357.583 301.25H367.917V270.25H357.583V301.25Z" fill="#CBCAC8"/>
<defs>
<clipPath id="clip0_1395_10658">
<rect width="96.4925" height="96.4925" fill="white" transform="translate(126 183.993) rotate(-22.5434)"/>
</clipPath>
<clipPath id="clip1_1395_10658">
<rect width="61.7474" height="61.7474" fill="white" transform="translate(461.654 129.02) rotate(30.8179)"/>
</clipPath>
<clipPath id="clip2_1395_10658">
<rect width="44.0215" height="44.0215" fill="white" transform="translate(262.5 225) rotate(30)"/>
</clipPath>
</defs>
</svg>
