<svg width="174" height="174" viewBox="0 0 174 174" fill="none" xmlns="http://www.w3.org/2000/svg">
<path d="M166.292 72.583C166.292 68.7595 164.773 65.0925 162.069 62.3889C159.366 59.6852 155.699 58.1663 151.875 58.1663H106.318L113.238 25.2243C113.383 24.5034 113.455 23.7105 113.455 22.9176C113.455 19.9622 112.229 17.223 110.283 15.2768L102.642 7.70801L55.2113 55.1388C52.5442 57.8059 50.9584 61.4101 50.9584 65.3747V137.458C50.9584 141.282 52.4773 144.948 55.1809 147.652C57.8846 150.356 61.5515 151.875 65.375 151.875H130.25C136.233 151.875 141.351 148.271 143.513 143.081L165.283 92.2617C165.931 90.6038 166.292 88.8738 166.292 86.9997V72.583ZM7.70837 151.875H36.5417V65.3747H7.70837V151.875Z" fill="#F49E00"/>
</svg>
