<svg width="198" height="196" viewBox="0 0 198 196" fill="none" xmlns="http://www.w3.org/2000/svg">
<path d="M99 163.334H29.2291C25.9636 163.334 22.8319 162.043 20.5229 159.746C18.2138 157.448 16.9166 154.333 16.9166 151.084V44.917C16.9166 41.6681 18.2138 38.5523 20.5229 36.2549C22.8319 33.9576 25.9636 32.667 29.2291 32.667H168.771C172.036 32.667 175.168 33.9576 177.477 36.2549C179.786 38.5523 181.083 41.6681 181.083 44.917V94.1579" stroke="#F49E00" stroke-width="14" stroke-linecap="round" stroke-linejoin="round"/>
<path d="M16.9166 44.917C16.9166 41.6681 18.2138 38.5523 20.5229 36.2549C22.8319 33.9576 25.9636 32.667 29.2291 32.667H168.771C172.036 32.667 175.168 33.9576 177.477 36.2549C179.786 38.5523 181.083 41.6681 181.083 44.917V81.667H16.9166V44.917Z" stroke="#F49E00" stroke-width="14"/>
<path d="M33.3333 57.1673C33.3333 52.657 37.0083 49.0007 41.5417 49.0007C46.075 49.0007 49.75 52.657 49.75 57.1673C49.75 61.6776 46.075 65.334 41.5417 65.334C37.0083 65.334 33.3333 61.6776 33.3333 57.1673Z" fill="#F49E00"/>
<path d="M57.9583 57.1673C57.9583 52.657 61.6333 49.0007 66.1667 49.0007C70.7 49.0007 74.375 52.657 74.375 57.1673C74.375 61.6776 70.7 65.334 66.1667 65.334C61.6333 65.334 57.9583 61.6776 57.9583 57.1673Z" fill="#F49E00"/>
<path d="M152.354 151.084C159.154 151.084 164.667 145.599 164.667 138.834C164.667 132.068 159.154 126.584 152.354 126.584C145.554 126.584 140.042 132.068 140.042 138.834C140.042 145.599 145.554 151.084 152.354 151.084Z" stroke="#F49E00" stroke-width="14"/>
<path d="M152.354 167.417V151.083M152.354 126.583V110.25M127.475 153.125L141.691 144.958M163.017 132.708L177.234 124.542M127.475 124.542L141.691 132.708M163.017 144.958L177.234 153.125" stroke="#F49E00" stroke-width="14" stroke-linecap="round" stroke-linejoin="round"/>
</svg>
