<svg width="232" height="232" viewBox="0 0 232 232" fill="none" xmlns="http://www.w3.org/2000/svg">
<path d="M174 125.667H167.427L148.093 145H166.557L183.667 164.333H48.3333L65.54 145H85.3567L66.0233 125.667H58L29 154.667V193.333C29 198.461 31.0369 203.378 34.6626 207.004C38.2883 210.63 43.2058 212.667 48.3333 212.667H183.667C188.794 212.667 193.712 210.63 197.337 207.004C200.963 203.378 203 198.461 203 193.333V154.667L174 125.667ZM164.333 76.85L116.483 124.7L82.1667 90.4799L130.113 42.63L164.333 76.85ZM123.347 22.1366L61.77 83.7133C60.8739 84.6076 60.1629 85.6698 59.6778 86.8393C59.1927 88.0087 58.943 89.2623 58.943 90.5283C58.943 91.7943 59.1927 93.0479 59.6778 94.2173C60.1629 95.3867 60.8739 96.449 61.77 97.3433L109.62 145C113.39 148.963 119.48 148.963 123.25 145L184.73 83.7133C185.626 82.819 186.337 81.7567 186.822 80.5873C187.307 79.4179 187.557 78.1643 187.557 76.8983C187.557 75.6323 187.307 74.3787 186.822 73.2093C186.337 72.0398 185.626 70.9776 184.73 70.0833L136.88 22.2333C136.008 21.3208 134.961 20.5927 133.802 20.0924C132.644 19.592 131.396 19.3296 130.134 19.3206C128.872 19.3115 127.62 19.5562 126.454 20.0399C125.289 20.5236 124.232 21.2367 123.347 22.1366Z" fill="#F49E00"/>
</svg>
