<svg width="24" height="24" viewBox="0 0 24 24" fill="none" xmlns="http://www.w3.org/2000/svg">
<mask id="mask0_2142_9138" style="mask-type:alpha" maskUnits="userSpaceOnUse" x="0" y="0" width="24" height="24">
<rect width="24" height="24" fill="#D9D9D9"/>
</mask>
<g mask="url(#mask0_2142_9138)">
<path d="M5 22C4.45 22 3.97917 21.8041 3.5875 21.4125C3.19583 21.0208 3 20.55 3 20V15.45L5.75 12.325L7.175 13.75L5.175 16H18.825L16.875 13.8L18.3 12.375L21 15.45V20C21 20.55 20.8042 21.0208 20.4125 21.4125C20.0208 21.8041 19.55 22 19 22H5ZM5 20H19V18H5V20ZM10.625 14.375L7.1 10.85C6.71667 10.4666 6.52917 9.9958 6.5375 9.43747C6.54583 8.87913 6.74167 8.4083 7.125 8.02497L12.025 3.12497C12.4083 2.74163 12.8833 2.54163 13.45 2.52497C14.0167 2.5083 14.4917 2.69163 14.875 3.07497L18.4 6.59997C18.7833 6.9833 18.9833 7.44997 19 7.99997C19.0167 8.54997 18.8333 9.01663 18.45 9.39997L13.45 14.4C13.0667 14.7833 12.5958 14.9708 12.0375 14.9625C11.4792 14.9541 11.0083 14.7583 10.625 14.375ZM17 8.02497L13.475 4.49997L8.525 9.44997L12.05 12.975L17 8.02497Z" fill="#F49E00"/>
</g>
</svg>
