<svg width="680" height="425" viewBox="0 0 680 425" fill="none" xmlns="http://www.w3.org/2000/svg">
<rect x="289" y="100.794" width="301.518" height="150.759" rx="75.3796" transform="rotate(135 289 100.794)" fill="#FFF4E0"/>
<rect x="348.391" y="395.589" width="115.41" height="56.7048" rx="28.3524" transform="rotate(-139.005 348.391 395.589)" stroke="#F49E00" stroke-width="2"/>
<rect x="456" y="32.1621" width="30.4481" height="15.224" rx="7.61202" transform="rotate(148.656 456 32.1621)" fill="#FCB738"/>
<path d="M615.53 350.716C615.522 350.91 615.553 351.103 615.623 351.284C615.692 351.465 615.798 351.63 615.933 351.769C616.068 351.908 616.231 352.018 616.41 352.091C616.59 352.165 616.782 352.201 616.976 352.198H621.926C622.754 352.198 623.414 351.52 623.522 350.698C624.062 346.762 626.762 343.894 631.574 343.894C635.69 343.894 639.458 345.952 639.458 350.902C639.458 354.712 637.214 356.464 633.668 359.128C629.63 362.062 626.432 365.488 626.66 371.05L626.678 372.352C626.684 372.746 626.845 373.121 627.126 373.397C627.406 373.673 627.784 373.828 628.178 373.828H633.044C633.442 373.828 633.823 373.67 634.105 373.389C634.386 373.107 634.544 372.726 634.544 372.328V371.698C634.544 367.39 636.182 366.136 640.604 362.782C644.258 360.004 648.068 356.92 648.068 350.446C648.068 341.38 640.412 337 632.03 337C624.428 337 616.1 340.54 615.53 350.716ZM624.872 385.294C624.872 388.492 627.422 390.856 630.932 390.856C634.586 390.856 637.1 388.492 637.1 385.294C637.1 381.982 634.58 379.654 630.926 379.654C627.422 379.654 624.872 381.982 624.872 385.294Z" fill="#CBCAC8"/>
<g clip-path="url(#clip0_1417_20812)">
<path d="M525.5 118.083C578.199 118.083 620.917 160.801 620.917 213.5C620.917 266.198 578.199 308.916 525.5 308.916C472.802 308.916 430.083 266.198 430.083 213.5C430.083 160.801 472.802 118.083 525.5 118.083ZM525.5 251.666C522.97 251.666 520.543 252.672 518.753 254.461C516.964 256.25 515.958 258.677 515.958 261.208C515.958 263.739 516.964 266.166 518.753 267.955C520.543 269.744 522.97 270.75 525.5 270.75C528.031 270.75 530.458 269.744 532.247 267.955C534.037 266.166 535.042 263.739 535.042 261.208C535.042 258.677 534.037 256.25 532.247 254.461C530.458 252.672 528.031 251.666 525.5 251.666ZM525.5 161.021C516.327 161.021 507.529 164.665 501.042 171.151C494.556 177.638 490.912 186.436 490.912 195.609C490.912 198.14 491.917 200.567 493.706 202.356C495.496 204.145 497.923 205.151 500.453 205.151C502.984 205.151 505.411 204.145 507.2 202.356C508.99 200.567 509.995 198.14 509.995 195.609C509.998 192.795 510.767 190.034 512.22 187.624C513.673 185.213 515.754 183.243 518.241 181.926C520.728 180.608 523.527 179.992 526.337 180.144C529.147 180.296 531.863 181.21 534.194 182.788C536.524 184.366 538.381 186.548 539.566 189.101C540.75 191.654 541.217 194.482 540.917 197.28C540.617 200.079 539.561 202.742 537.862 204.986C536.163 207.23 533.885 208.969 531.273 210.017C524.823 212.593 515.958 219.196 515.958 230.198V232.583C515.958 235.114 516.964 237.541 518.753 239.33C520.543 241.119 522.97 242.125 525.5 242.125C528.031 242.125 530.458 241.119 532.247 239.33C534.037 237.541 535.042 235.114 535.042 232.583C535.042 230.255 535.519 229.091 537.532 228.098L538.362 227.717C545.813 224.72 551.988 219.224 555.831 212.173C559.673 205.121 560.943 196.952 559.422 189.067C557.901 181.182 553.685 174.071 547.496 168.954C541.307 163.837 533.531 161.032 525.5 161.021Z" fill="#F49E00"/>
</g>
<defs>
<clipPath id="clip0_1417_20812">
<rect width="229" height="229" fill="white" transform="translate(411 99)"/>
</clipPath>
</defs>
</svg>
