<svg width="375" height="266" viewBox="0 0 375 266" fill="none" xmlns="http://www.w3.org/2000/svg">
<g clip-path="url(#clip0_1417_20813)">
<path d="M179.5 19.083C232.199 19.083 274.917 61.801 274.917 114.5C274.917 167.198 232.199 209.916 179.5 209.916C126.802 209.916 84.0835 167.198 84.0835 114.5C84.0835 61.801 126.802 19.083 179.5 19.083ZM179.5 152.666C176.97 152.666 174.543 153.672 172.753 155.461C170.964 157.25 169.958 159.677 169.958 162.208C169.958 164.739 170.964 167.166 172.753 168.955C174.543 170.744 176.97 171.75 179.5 171.75C182.031 171.75 184.458 170.744 186.247 168.955C188.037 167.166 189.042 164.739 189.042 162.208C189.042 159.677 188.037 157.25 186.247 155.461C184.458 153.672 182.031 152.666 179.5 152.666ZM179.5 62.0205C170.327 62.0205 161.529 65.6646 155.042 72.1513C148.556 78.6379 144.912 87.4356 144.912 96.609C144.912 99.1396 145.917 101.567 147.706 103.356C149.496 105.145 151.923 106.151 154.453 106.151C156.984 106.151 159.411 105.145 161.2 103.356C162.99 101.567 163.995 99.1396 163.995 96.609C163.998 93.7946 164.767 91.0341 166.22 88.6235C167.673 86.2129 169.754 84.2432 172.241 82.9255C174.728 81.6079 177.527 80.9919 180.337 81.1438C183.147 81.2957 185.863 82.2096 188.194 83.7877C190.524 85.3657 192.381 87.5482 193.566 90.1013C194.75 92.6544 195.217 95.4818 194.917 98.2802C194.617 101.079 193.561 103.742 191.862 105.986C190.163 108.23 187.885 109.969 185.273 111.017C178.823 113.593 169.958 120.196 169.958 131.198V133.583C169.958 136.114 170.964 138.541 172.753 140.33C174.543 142.119 176.97 143.125 179.5 143.125C182.031 143.125 184.458 142.119 186.247 140.33C188.037 138.541 189.042 136.114 189.042 133.583C189.042 131.255 189.519 130.091 191.532 129.098L192.362 128.717C199.813 125.72 205.988 120.224 209.831 113.173C213.673 106.121 214.943 97.9523 213.422 90.0671C211.901 82.1819 207.685 75.0712 201.496 69.9541C195.307 64.837 187.531 62.0322 179.5 62.0205Z" fill="#F49E00"/>
</g>
<rect width="108.229" height="54.1366" rx="17.6923" transform="matrix(0.965895 0.258932 -0.258706 0.965956 -68.3511 33.3115)" fill="#FFF4E0"/>
<rect x="0.304175" y="0.0815036" width="49.7845" height="24.6754" rx="12.3377" transform="matrix(0.865924 -0.500176 0.499824 0.866127 23.2286 131.18)" stroke="#F49E00" stroke-width="0.445434"/>
<rect width="12.5044" height="6.25334" rx="3.12667" transform="matrix(0.832562 0.553932 -0.553571 0.832802 80.5044 42.8525)" fill="#FCB738"/>
<rect width="108.229" height="54.1366" rx="17.6923" transform="matrix(-0.965895 -0.258933 0.258706 -0.965956 441.351 251.688)" fill="#FFF4E0"/>
<rect x="-0.304175" y="-0.0815036" width="49.7845" height="24.6754" rx="12.3377" transform="matrix(-0.865924 0.500176 -0.499824 -0.866127 349.163 153.983)" stroke="#F49E00" stroke-width="0.445434"/>
<rect width="12.5044" height="6.25334" rx="3.12667" transform="matrix(-0.832562 -0.553932 0.553571 -0.832802 292.496 242.147)" fill="#FCB738"/>
<defs>
<clipPath id="clip0_1417_20813">
<rect width="229" height="229" fill="white" transform="translate(65)"/>
</clipPath>
</defs>
</svg>
