<svg width="281" height="278" viewBox="0 0 281 278" fill="none" xmlns="http://www.w3.org/2000/svg">
<path d="M149.51 69.3066H30.3019C22.1063 69.3066 15.4754 76.0121 15.4754 84.2076L15.4009 173.614C15.4009 181.809 22.1063 188.515 30.3019 188.515H149.51C157.705 188.515 164.411 181.809 164.411 173.614V84.2076C164.411 76.0121 157.705 69.3066 149.51 69.3066ZM146.53 100.971L93.8546 133.902C91.4704 135.393 88.3412 135.393 85.9571 133.902L33.2821 100.971C32.535 100.552 31.8808 99.9853 31.359 99.3057C30.8372 98.6262 30.4588 97.8478 30.2466 97.0178C30.0343 96.1878 29.9927 95.3233 30.1242 94.4767C30.2557 93.6301 30.5577 92.819 31.0118 92.0925C31.4658 91.366 32.0626 90.7392 32.7659 90.2499C33.4693 89.7607 34.2646 89.4193 35.1037 89.2464C35.9428 89.0734 36.8083 89.0726 37.6477 89.2438C38.4872 89.415 39.2832 89.7548 39.9875 90.2425L89.9058 121.46L139.824 90.2425C140.528 89.7548 141.324 89.415 142.164 89.2438C143.003 89.0726 143.869 89.0734 144.708 89.2464C145.547 89.4193 146.342 89.7607 147.046 90.2499C147.749 90.7392 148.346 91.366 148.8 92.0925C149.254 92.819 149.556 93.6301 149.687 94.4767C149.819 95.3233 149.777 96.1878 149.565 97.0178C149.353 97.8478 148.974 98.6262 148.453 99.3057C147.931 99.9853 147.277 100.552 146.53 100.971Z" fill="#F49E00"/>
<path d="M259.012 221.081C259.012 224.429 259.964 225.764 262.455 225.764C268.006 225.764 271.541 218.69 271.541 206.926C271.541 188.945 258.438 180.337 242.079 180.337C225.25 180.337 209.943 191.623 209.943 212.952C209.943 233.324 223.333 244.418 243.896 244.418C250.878 244.418 255.565 243.653 262.734 241.262L264.272 247.666C257.195 249.966 249.631 250.631 243.8 250.631C216.829 250.631 202.383 235.806 202.383 212.948C202.383 189.897 219.124 174.212 242.175 174.212C266.181 174.212 278.898 188.558 278.898 206.157C278.898 221.077 274.215 232.459 259.486 232.459C252.787 232.459 248.391 229.781 247.817 223.847C246.096 230.446 241.505 232.459 235.284 232.459C226.963 232.459 219.981 226.047 219.981 213.139C219.981 200.131 226.106 192.097 237.105 192.097C242.94 192.097 246.574 194.393 248.192 198.027L250.97 192.958H259.004V221.081H259.012ZM247.252 208.456C247.252 203.2 243.326 200.996 240.074 200.996C236.536 200.996 232.618 203.861 232.618 212.282C232.618 218.977 235.583 222.707 240.074 222.707C243.231 222.707 247.252 220.699 247.252 215.151V208.456Z" fill="#F49E00"/>
<g clip-path="url(#clip0_1395_10462)">
<path d="M179.89 212.743H134.089C130.214 212.743 127.043 215.914 127.043 219.789V251.497C127.043 253.366 127.785 255.158 129.107 256.48C130.428 257.801 132.22 258.543 134.089 258.543H179.89C183.8 258.543 186.936 255.408 186.936 251.497V219.789C186.936 217.921 186.193 216.128 184.872 214.807C183.551 213.486 181.758 212.743 179.89 212.743ZM179.89 225.673L156.989 237.405L134.089 225.673V219.789L156.989 231.451L179.89 219.789V225.673ZM119.997 251.497C119.997 252.096 120.103 252.66 120.173 253.259H105.904C103.96 253.259 102.381 251.673 102.381 249.736C102.381 247.798 103.96 246.213 105.904 246.213H119.997V251.497ZM112.951 218.028H120.173C120.103 218.627 119.997 219.19 119.997 219.789V225.074H112.951C111.013 225.074 109.428 223.489 109.428 221.551C109.428 219.613 111.013 218.028 112.951 218.028ZM105.904 235.643C105.904 233.706 107.49 232.12 109.428 232.12H119.997V239.166H109.428C107.49 239.166 105.904 237.581 105.904 235.643Z" fill="#CBCAC8"/>
</g>
<g clip-path="url(#clip1_1395_10462)">
<path d="M208.19 15.8828H170.648C167.472 15.8828 164.873 18.4818 164.873 21.6584V47.6485C164.873 49.1803 165.481 50.6493 166.564 51.7324C167.647 52.8156 169.117 53.4241 170.648 53.4241H208.19C211.395 53.4241 213.965 50.8539 213.965 47.6485V21.6584C213.965 20.1266 213.357 18.6576 212.273 17.5744C211.19 16.4913 209.721 15.8828 208.19 15.8828ZM208.19 47.6485H170.648V26.481L189.419 36.0973L208.19 26.481V47.6485ZM189.419 31.217L170.648 21.6584H208.19L189.419 31.217ZM159.097 47.6485C159.097 48.1394 159.184 48.6015 159.242 49.0924H147.546C145.952 49.0924 144.658 47.7929 144.658 46.2046C144.658 44.6163 145.952 43.3168 147.546 43.3168H159.097V47.6485ZM153.322 20.2145H159.242C159.184 20.7054 159.097 21.1675 159.097 21.6584V25.9901H153.322C151.733 25.9901 150.434 24.6906 150.434 23.1023C150.434 21.514 151.733 20.2145 153.322 20.2145ZM147.546 34.6534C147.546 33.0652 148.845 31.7656 150.434 31.7656H159.097V37.5412H150.434C148.845 37.5412 147.546 36.2417 147.546 34.6534Z" fill="#CBCAC8"/>
</g>
<path d="M216.506 109.274H185.087C182.927 109.274 181.179 111.042 181.179 113.202L181.16 148.548L189.014 140.694H216.506C218.666 140.694 220.434 138.926 220.434 136.766V113.202C220.434 111.042 218.666 109.274 216.506 109.274ZM210.615 132.839H190.978C189.898 132.839 189.014 131.955 189.014 130.875C189.014 129.795 189.898 128.911 190.978 128.911H210.615C211.695 128.911 212.579 129.795 212.579 130.875C212.579 131.955 211.695 132.839 210.615 132.839ZM210.615 126.948H190.978C189.898 126.948 189.014 126.064 189.014 124.984C189.014 123.904 189.898 123.02 190.978 123.02H210.615C211.695 123.02 212.579 123.904 212.579 124.984C212.579 126.064 211.695 126.948 210.615 126.948ZM210.615 121.057H190.978C189.898 121.057 189.014 120.173 189.014 119.093C189.014 118.013 189.898 117.129 190.978 117.129H210.615C211.695 117.129 212.579 118.013 212.579 119.093C212.579 120.173 211.695 121.057 210.615 121.057Z" fill="#CBCAC8"/>
<g clip-path="url(#clip2_1395_10462)">
<path d="M233.856 89.4062C231.29 89.4062 229.213 91.4804 229.213 94.0498V121.893C229.213 124.459 231.29 126.533 233.856 126.533H245.413L251.143 135.124C251.284 135.336 251.476 135.509 251.7 135.63C251.925 135.75 252.176 135.813 252.431 135.813C252.686 135.813 252.936 135.75 253.161 135.63C253.386 135.509 253.577 135.336 253.719 135.124L259.449 126.533H271.005C273.571 126.533 275.649 124.459 275.649 121.89V94.0498C275.649 91.4804 273.571 89.4062 271.005 89.4062H233.856Z" fill="#CBCAC8"/>
</g>
<defs>
<clipPath id="clip0_1395_10462">
<rect width="84.5545" height="84.5545" fill="white" transform="translate(102.381 193.366)"/>
</clipPath>
<clipPath id="clip1_1395_10462">
<rect width="69.3069" height="69.3069" fill="white" transform="translate(144.658)"/>
</clipPath>
<clipPath id="clip2_1395_10462">
<rect width="46.4356" height="46.4356" fill="white" transform="translate(229.213 89.4062)"/>
</clipPath>
</defs>
</svg>
