<svg width="217" height="102" viewBox="0 0 217 102" fill="none" xmlns="http://www.w3.org/2000/svg">
<g clip-path="url(#clip0_1286_4373)">
<path d="M22.935 81.8823C26.1106 88.9411 32.1089 92.1176 38.813 93.1764C43.7528 93.8823 50.1041 94.2352 58.5724 94.2352C71.6276 94.2352 85.3886 93.5293 96.3268 92.8235C96.6797 92.8235 96.6797 92.8235 97.0325 92.8235C99.5024 92.8235 100.561 94.2352 100.561 96.7058C100.561 97.0587 100.561 97.0588 100.561 97.4117C100.561 99.5293 99.1496 101.294 96.6797 101.294C85.7415 102 70.5691 102 57.8667 102C49.0455 102 40.9301 101.647 35.6374 100.235C27.8748 98.4705 21.5236 94.5882 18.348 88.2352C14.4667 92.8235 10.5854 97.7646 5.99837 100.941C5.29268 101.647 4.58699 101.647 3.8813 101.647C2.82276 101.647 1.76423 100.941 0.705691 99.8823C0.352846 99.1764 0 98.4705 0 97.4117C0 96.3529 0.705691 94.9411 1.76423 94.2352C5.29268 91.4117 10.9382 86.4705 14.8195 81.5293V58.2352C14.8195 56.1176 14.1138 55.4117 11.9967 55.4117H3.52846C1.76423 55.4117 0.352846 54.3529 0.352846 51.8823C0.352846 49.4117 1.76423 47.9999 3.52846 47.9999H15.1724C20.8179 47.9999 22.935 50.8235 22.935 56.4705V81.8823ZM70.2163 47.647V42.7058C70.2163 40.9411 71.6276 39.8823 74.0976 39.8823C76.2146 39.8823 77.9789 40.9411 77.9789 42.7058V47.647H92.0927C93.8569 47.647 94.5626 49.0588 94.5626 50.8235C94.5626 52.5882 93.5041 53.9999 92.0927 53.9999H77.9789V67.7646H95.6211C97.3854 67.7646 98.4439 69.1764 98.4439 70.9411C98.4439 72.7058 97.3854 74.1176 95.6211 74.1176H29.639C27.8748 74.1176 27.1691 72.7058 27.1691 70.9411C27.1691 69.1764 28.2276 67.7646 29.639 67.7646H45.5171V53.9999H33.5203C31.7561 53.9999 31.0504 52.5882 31.0504 50.8235C31.0504 49.0588 31.7561 47.647 33.5203 47.647H45.5171V42.7058C45.5171 40.9411 46.9285 39.8823 49.0455 39.8823C51.5154 39.8823 52.9268 40.9411 52.9268 42.7058V47.647H70.2163ZM38.4602 20.4705C36.3431 20.4705 35.6374 20.8235 35.6374 22.9411V26.1176C35.6374 28.5882 36.3431 29.294 43.4 29.294C49.7512 29.294 51.1626 28.9411 52.2211 28.2352C53.2797 27.5293 53.6325 26.4705 53.9854 24.7058C54.3382 22.9411 55.7496 21.8823 57.5138 21.8823C57.8667 21.8823 57.8667 21.8823 58.2195 21.8823C60.3366 22.2352 61.3951 23.647 61.3951 25.0588V25.4117C61.0423 28.2352 59.9837 31.0588 58.5724 32.4705C57.5138 33.5293 55.7496 34.5882 52.574 34.9411C50.4569 35.294 47.2813 35.294 43.4 35.294C38.813 35.294 35.6374 35.294 33.5203 34.5882C29.9919 33.5293 28.9333 31.4117 28.9333 27.5293V20.4705C28.9333 16.2352 31.0504 14.1176 35.9902 14.1176H49.3984C51.5154 14.1176 51.8683 13.7646 51.8683 11.647V9.88228C51.8683 7.76463 51.5154 7.05875 49.0455 7.05875H30.3447C28.9333 7.05875 27.8748 5.99993 27.8748 3.88228C27.8748 1.76463 28.9333 0.705811 30.6976 0.705811H51.8683C57.161 0.705811 58.9252 2.47052 58.9252 8.11758V14.1176C58.9252 19.4117 56.8081 20.4705 51.5154 20.4705H38.4602ZM55.7496 80.1176C55.7496 80.8235 55.3967 81.8823 54.3382 82.5882C49.3984 85.7646 42.6943 88.9411 37.0488 90.7058C36.3431 90.7058 35.9902 91.0587 35.6374 91.0587C34.226 91.0587 32.8146 90.3529 32.4618 88.9411C32.1089 88.2352 31.7561 87.5293 31.7561 87.1764C31.7561 85.7646 32.8146 84.7058 34.226 84.3529C39.1659 82.9411 45.5171 80.4705 49.7512 77.647C50.4569 77.294 51.1626 76.9411 51.8683 76.9411C52.9268 76.9411 53.6325 77.294 54.6911 77.9999C55.3967 78.7058 55.7496 79.4117 55.7496 80.1176ZM70.2163 68.1176V54.3529H52.9268V68.1176H70.2163ZM74.4504 20.4705C72.3333 20.4705 71.6276 20.8235 71.6276 22.9411V26.1176C71.6276 28.9411 72.3333 29.294 79.7431 29.294C80.4488 29.294 81.1545 29.294 81.5073 29.294C86.4472 29.294 88.5642 28.9411 89.2699 28.2352C90.3285 27.1764 90.6813 26.1176 90.6813 24.3529C90.6813 22.5882 92.0927 21.8823 93.8569 21.8823C94.2098 21.8823 94.5626 21.8823 94.5626 21.8823C96.3268 22.2352 97.7382 23.647 97.7382 25.0588V25.4117C97.3854 28.2352 96.6797 31.0588 95.2683 32.1176C94.2098 33.5293 92.4455 34.2352 89.6228 34.9411C87.5057 35.294 83.6244 35.647 79.7431 35.647C75.1561 35.647 71.6276 35.294 69.1577 34.9411C65.6293 34.2352 64.5707 32.1176 64.5707 27.8823V20.1176C64.5707 16.2352 66.6878 14.1176 71.2748 14.1176H85.0358C87.1528 14.1176 87.5057 13.4117 87.5057 11.294V9.88228C87.5057 7.76463 87.1528 7.05875 84.6829 7.05875H67.0406C65.2764 7.05875 64.2179 5.64699 64.2179 3.88228C64.2179 1.76463 65.2764 0.705811 67.0406 0.705811H88.2114C93.5041 0.705811 95.2683 2.47052 95.2683 8.11758V14.1176C95.2683 19.4117 93.1512 20.4705 87.8585 20.4705H74.4504ZM87.8585 90.7058C81.5073 88.5882 74.8033 85.7646 69.1577 82.2352C68.0992 81.5293 67.7463 80.8235 67.7463 79.7646C67.7463 79.0588 68.0992 77.9999 68.8049 77.294C69.5106 76.5882 70.5691 76.2352 71.6276 76.2352C72.3333 76.2352 73.039 76.5882 73.7447 76.9411C79.0374 80.1176 86.4472 82.9411 92.4455 84.7058C93.8569 85.0587 94.5626 86.1176 94.5626 87.5293C94.5626 87.8823 94.5626 88.2352 94.2098 88.5882C93.8569 90.3529 92.4455 91.0587 91.387 91.0587C91.0341 91.0587 90.6813 91.0588 89.9756 90.7058H87.8585Z" fill="black"/>
<path d="M167.602 66.7059H209.943C211.707 66.7059 212.766 67.7647 212.766 69.8823C212.766 72 211.707 73.4118 209.943 73.4118H167.602C167.602 79.7647 167.602 97.4118 167.602 97.4118C167.602 99.1765 166.19 100.588 163.72 100.588C161.25 100.588 159.839 99.1765 159.839 97.4118V85.0588C159.839 82.5882 160.192 78.7059 160.545 75.8824C149.607 87.5294 135.846 93.5294 120.673 97.7647C119.968 97.7647 119.615 98.1176 119.262 98.1176C117.498 98.1176 116.086 97.0588 115.733 95.2941C115.733 94.5882 115.381 94.2353 115.381 93.8824C115.381 92.1177 116.086 91.0588 118.203 90.3529C130.906 87.5294 143.608 82.2353 153.135 73.7647H109.029C107.265 73.7647 106.207 72.3529 106.207 70.2353C106.207 68.1176 107.265 67.0588 109.029 67.0588H159.839V60H136.904C130.906 60 128.436 57.5294 128.436 51.8824V35.2941C128.436 32.1176 128.789 28.2353 129.141 25.0588C126.672 27.8824 124.202 30.3529 121.379 32.8235C120.673 33.5294 119.615 33.8824 118.556 33.8824C117.498 33.8824 116.439 33.5294 115.733 32.4706C115.028 31.7647 114.675 31.0588 114.675 30V29.6471C114.675 28.5882 115.381 27.5294 116.439 26.4706C124.555 20.1176 132.317 10.9412 136.904 2.11765C137.61 0.705882 139.021 0 140.433 0C141.138 0 141.491 0 142.197 0.352941C143.961 1.05882 144.667 2.11765 144.667 3.17647C144.667 3.88235 144.314 4.58824 143.961 5.29412C142.902 6.70588 141.491 9.17647 139.727 11.6471C141.844 11.2941 143.961 11.2941 145.725 11.2941H204.65C206.415 11.2941 207.473 12.7059 207.473 14.4706C207.473 16.2353 206.768 17.6471 204.65 17.6471H169.366V25.4118H200.063C201.828 25.4118 202.533 26.8235 202.533 28.2353C202.533 30 201.828 31.0588 200.063 31.0588H169.366V38.8235H199.711C201.475 38.8235 202.181 39.8824 202.181 41.6471C202.181 43.4118 201.475 44.4706 199.711 44.4706H169.366V52.9412H204.65C206.415 52.9412 207.473 54 207.473 56.1176C207.473 58.2353 206.415 59.2941 204.65 59.2941H167.602V66.7059ZM162.309 25.4118V17.6471H139.374C137.257 17.6471 136.198 18.3529 136.198 20.4706V25.7647H162.309V25.4118ZM136.198 39.1765H162.309V31.4118H136.198V39.1765ZM136.198 50.8235C136.198 52.9412 137.257 53.6471 139.374 53.6471H162.309V45.1765H136.198V50.8235Z" fill="black"/>
<path d="M11.2912 39.5295C9.17408 39.5295 7.7627 38.1177 7.7627 36.0001V8.8236C7.7627 6.70595 9.17408 5.29419 11.2912 5.29419C13.4082 5.29419 14.8196 6.70595 14.8196 8.8236V36.0001C14.8196 37.7648 13.4082 39.5295 11.2912 39.5295Z" fill="black"/>
<path d="M184.891 16.9413C182.774 16.9413 181.363 15.5295 181.363 13.4118V3.88244C181.363 1.76479 182.774 0.353027 184.891 0.353027C187.008 0.353027 188.419 1.76479 188.419 3.88244V13.4118C188.419 15.5295 186.655 16.9413 184.891 16.9413Z" fill="black"/>
<path d="M209.943 98.1176C203.592 95.9999 196.888 93.1764 191.242 89.647C190.184 88.9411 189.831 88.2352 189.831 87.1764C189.831 86.4705 190.184 85.4117 190.889 84.7058C191.595 83.9999 192.654 83.647 193.712 83.647C194.418 83.647 195.123 83.9999 195.829 84.3529C201.122 87.5293 208.532 90.3529 214.53 92.1176C215.941 92.4705 216.647 93.5293 216.647 94.9411C216.647 95.294 216.647 95.647 216.294 95.9999C215.941 97.7646 214.53 98.4705 213.471 98.4705C213.119 98.4705 212.766 98.4705 212.06 98.1176H209.943Z" fill="black"/>
</g>
<defs>
<clipPath id="clip0_1286_4373">
<rect width="217" height="102" fill="white"/>
</clipPath>
</defs>
</svg>
