<svg width="42" height="47" viewBox="0 0 42 47" fill="none" xmlns="http://www.w3.org/2000/svg">
<path d="M4.66667 46.3337C3.38333 46.3337 2.28472 45.8768 1.37083 44.9629C0.456944 44.049 0 42.9504 0 41.6671V31.0504L6.41667 23.7587L9.74167 27.0837L5.075 32.3338H36.925L32.375 27.2004L35.7 23.8754L42 31.0504V41.6671C42 42.9504 41.5431 44.049 40.6292 44.9629C39.7153 45.8768 38.6167 46.3337 37.3333 46.3337H4.66667ZM4.66667 41.6671H37.3333V37.0004H4.66667V41.6671ZM17.7917 28.5421L9.56667 20.3171C8.67222 19.4226 8.23472 18.324 8.25417 17.0212C8.27361 15.7185 8.73056 14.6199 9.625 13.7254L21.0583 2.29208C21.9528 1.39763 23.0611 0.930968 24.3833 0.892079C25.7056 0.85319 26.8139 1.28097 27.7083 2.17541L35.9333 10.4004C36.8278 11.2949 37.2944 12.3837 37.3333 13.6671C37.3722 14.9504 36.9444 16.0393 36.05 16.9337L24.3833 28.6004C23.4889 29.4949 22.3903 29.9324 21.0875 29.9129C19.7847 29.8935 18.6861 29.4365 17.7917 28.5421ZM32.6667 13.7254L24.4417 5.50041L12.8917 17.0504L21.1167 25.2754L32.6667 13.7254Z" fill="#888888"/>
</svg>
